# xmcd
#
# Track frame offsets:
#	150
#	14707
#	29110
#	43582
#	57610
#	75985
#	88960
#	99535
#	113860
#	125110
#	144010
#	161260
#
# Disc length: 2357 seconds
#
# Revision: 1
# Processed by: cddbd v1.4PL0 Copyright (c) Steve Scherf et al.
# Submitted via: Gronk 1.4
#
DISCID=a209330c
DTITLE=Don Williams - Very Best of Don Williams Disc Two
DYEAR=1900
DGENRE=country
TTITLE0=Tulsa Time
TTITLE1=Listen To The Radio
TTITLE2=If Hollywood Don't Need You
TTITLE3=Amanda
TTITLE4=Lord, I Hope This Day Is Good
TTITLE5=Rack And Ramblin' Man
TTITLE6=(Turn Out The Lights And Love Me Tonight
TTITLE7=I'll Never Be In Love Again
TTITLE8=It Must Be Love
TTITLE9=Good Ole Boys Like Me
TTITLE10=Old Coyoto Town
TTITLE11=Till The Rivers All Run Dry
EXTD=
EXTT0=
EXTT1=
EXTT2=
EXTT3=
EXTT4=
EXTT5=
EXTT6=
EXTT7=
EXTT8=
EXTT9=
EXTT10=
EXTT11=
PLAYORDER=
